<svg width="229" height="234" viewBox="0 0 229 234" fill="none" xmlns="http://www.w3.org/2000/svg">
<path d="M229 36.0764C229.009 28.9438 226.946 21.9687 223.072 16.035C219.198 10.1013 213.686 5.47604 207.237 2.74517C200.787 0.0143034 193.689 -0.699232 186.842 0.694974C179.995 2.08918 173.707 5.52838 168.775 10.5768L136.602 43.4456L62.2945 18.1799C60.3161 17.5446 58.206 17.4703 56.1894 17.9647C54.1729 18.4591 52.3256 19.5038 50.845 20.9872L23.5951 48.5923C22.3039 49.9266 21.3459 51.5588 20.8019 53.3509C20.2579 55.143 20.1439 57.0425 20.4695 58.8891C20.7951 60.7357 21.5507 62.4751 22.6726 63.9607C23.7945 65.4463 25.2497 66.6343 26.9154 67.4245L86.224 94.9126L56.4552 125.325L36.8765 115.266C34.7626 114.097 32.3423 113.637 29.9585 113.952C27.5748 114.267 25.3484 115.34 23.5951 117.02L3.32944 138.192C1.19695 140.383 0 143.348 0 146.438C0 149.528 1.19695 152.493 3.32944 154.685L77.6368 230.599C79.782 232.777 82.6839 234 85.7087 234C88.7335 234 91.6354 232.777 93.7806 230.599L114.504 209.895C116.223 208.157 117.359 205.909 117.749 203.471C118.14 201.034 117.766 198.533 116.68 196.326L106.833 176.324L136.602 145.912L163.508 206.503C164.282 208.204 165.445 209.691 166.899 210.837C168.353 211.983 170.056 212.755 171.863 213.088C173.671 213.421 175.53 213.304 177.284 212.748C179.038 212.193 180.636 211.214 181.942 209.895L208.963 182.29C210.415 180.777 211.437 178.89 211.921 176.83C212.405 174.77 212.333 172.614 211.711 170.593L186.98 94.6787L218.695 61.576C221.983 58.2373 224.588 54.263 226.357 49.8849C228.127 45.5069 229.025 40.8128 229 36.0764ZM202.437 45.0832L165.34 82.9816C163.888 84.4943 162.866 86.3815 162.382 88.4416C161.898 90.5018 161.97 92.6575 162.592 94.6787L187.323 170.476L177.019 181.003L150.112 120.529C149.349 118.812 148.19 117.308 146.734 116.147C145.279 114.986 143.57 114.202 141.754 113.862C139.923 113.52 138.038 113.64 136.262 114.211C134.487 114.782 132.874 115.786 131.564 117.137L84.392 165.797C82.6985 167.525 81.5778 169.752 81.1876 172.165C80.7974 174.578 81.1573 177.055 82.2166 179.248L91.6052 198.9L85.1935 205.45L27.6024 146.497L34.3576 140.414L53.9363 150.474C56.083 151.556 58.5077 151.924 60.8695 151.525C63.2313 151.126 65.4114 149.981 67.1033 148.251L114.504 99.5915C115.82 98.2579 116.799 96.6181 117.357 94.8128C117.916 93.0074 118.037 91.0906 117.71 89.2269C117.384 87.3632 116.619 85.6083 115.483 84.113C114.346 82.6177 112.871 81.4267 111.184 80.6422L51.5319 53.1541L61.8365 42.6268L136.029 67.8924C138.008 68.5277 140.118 68.6021 142.134 68.1076C144.151 67.6132 145.998 66.5685 147.479 65.0851L184.575 27.1866C185.716 25.9947 187.079 25.0477 188.583 24.4011C190.087 23.7546 191.702 23.4215 193.334 23.4215C194.966 23.4215 196.581 23.7546 198.086 24.4011C199.59 25.0477 200.952 25.9947 202.093 27.1866C203.287 28.3171 204.232 29.6948 204.864 31.2277C205.496 32.7607 205.8 34.4137 205.757 36.0764C205.819 37.728 205.557 39.3756 204.987 40.9223C204.417 42.4691 203.55 43.8837 202.437 45.0832Z" fill="#1A2A6C"/>
</svg>
