<svg width="241" height="216" viewBox="0 0 241 216" fill="none" xmlns="http://www.w3.org/2000/svg">
<path d="M137.459 84.1494C131.386 84.1494 126.681 88.8551 126.681 94.6649C126.681 100.475 131.386 105.18 137.459 105.18C143.006 105.18 147.712 100.475 147.712 94.6649C147.712 88.8551 143.006 84.1494 137.459 84.1494ZM63.8506 84.1494C57.7779 84.1494 53.0723 88.8551 53.0723 94.6649C53.0723 100.475 57.7779 105.18 63.8506 105.18C69.3975 105.18 74.1032 100.475 74.1032 94.6649C74.1032 88.8551 69.3975 84.1494 63.8506 84.1494Z" fill="#1A2A6C"/>
<path d="M100.646 84.1494C94.5729 84.1494 89.8672 88.8551 89.8672 94.6649C89.8672 100.475 94.5729 105.18 100.646 105.18C106.192 105.18 110.898 100.475 110.898 94.6649C110.898 88.8551 106.192 84.1494 100.646 84.1494Z" fill="#1A2A6C"/>
<path d="M222.484 65.8813C210.084 49.2346 192.203 37.2403 171.828 31.9009V31.9271C167.245 26.9607 162.072 22.3864 156.282 18.3088C112.407 -12.7963 50.8145 -3.30793 18.7855 39.4812C-7.02529 74.2457 -5.92639 121.008 20.3937 154.23L20.6081 188.89C20.6081 189.727 20.7421 190.563 21.0101 191.347C21.3472 192.395 21.8928 193.367 22.6156 194.209C23.3385 195.05 24.2243 195.745 25.2226 196.252C26.2208 196.759 27.3119 197.07 28.4333 197.166C29.5547 197.261 30.6844 197.141 31.7579 196.81L65.6899 186.381C74.6687 189.491 83.9424 191.269 93.1624 191.765L93.0284 191.87C116.909 208.834 148.215 213.931 176.92 204.678L210.986 215.499C211.844 215.761 212.728 215.918 213.64 215.918C218.384 215.918 222.216 212.18 222.216 207.553V172.527C245.829 141.265 246.446 98.0581 222.484 65.8813ZM69.4422 167.822L66.2259 166.515L39.6915 174.618L39.4234 147.434L37.2792 145.082C14.6043 118.106 13.1034 79.2382 34.331 50.7208C60.1686 16.1654 109.7 8.53292 145.025 33.4693C180.458 58.5886 188.311 106.815 162.715 141.161C141.246 169.887 102.811 180.5 69.4422 167.822ZM204.795 163.379L202.651 165.993L202.919 193.177L176.652 184.551L173.436 185.858C158.426 191.295 142.425 191.739 127.604 187.688L127.55 187.662C147.921 181.569 165.715 169.196 178.26 152.401C198.737 124.876 202.061 90.2949 190.161 60.8104L190.321 60.9149C196.486 65.2278 202.141 70.6124 206.939 77.121C226.398 103.155 225.299 138.599 204.795 163.379Z" fill="#1A2A6C"/>
</svg>
