<svg width="228" height="218" viewBox="0 0 228 218" fill="currentColor" xmlns="http://www.w3.org/2000/svg">
<path d="M220.562 114.754C225.35 108.881 228 101.686 228 94.1996C228 82.3222 220.847 71.0796 209.333 64.8102C206.368 63.1965 202.993 62.3471 199.557 62.3501H131.214L132.924 29.8393C133.323 21.9827 130.331 14.5229 124.517 8.83552C121.663 6.03224 118.221 3.80185 114.402 2.28218C110.584 0.762506 106.47 -0.0141528 102.315 0.000195228C87.495 0.000195228 74.385 9.25877 70.452 22.5118L45.9705 104.781H9.12C4.0755 104.781 0 108.564 0 113.246V209.535C0 214.217 4.0755 218 9.12 218H180.49C183.112 218 185.677 217.524 188.043 216.572C201.609 211.202 210.359 198.901 210.359 185.251C210.359 181.918 209.846 178.638 208.82 175.463C213.608 169.591 216.258 162.396 216.258 154.909C216.258 151.576 215.745 148.296 214.719 145.122C219.507 139.249 222.158 132.054 222.158 124.568C222.101 121.235 221.588 117.928 220.562 114.754ZM20.52 198.954V123.827H43.605V198.954H20.52ZM201.894 105.574L195.653 110.601L199.614 117.32C200.919 119.533 201.596 122.018 201.581 124.541C201.581 128.906 199.529 133.059 195.995 135.916L189.753 140.942L193.715 147.661C195.02 149.875 195.696 152.36 195.681 154.883C195.681 159.248 193.629 163.401 190.095 166.258L183.853 171.284L187.815 178.003C189.12 180.216 189.797 182.702 189.782 185.225C189.782 191.15 186.02 196.494 180.206 198.927H61.845V122.981L90.2025 27.6172C90.9337 25.173 92.5034 23.0165 94.6737 21.4747C96.8439 19.9329 99.4965 19.0897 102.23 19.0729C104.396 19.0729 106.533 19.6548 108.243 20.8452C111.064 22.8027 112.575 25.7655 112.404 28.9134L109.668 81.3963H199.272C204.345 84.2797 207.48 89.1471 207.48 94.1996C207.48 98.5644 205.428 102.691 201.894 105.574Z" />
</svg>
