<svg width="197" height="203" viewBox="0 0 197 203" fill="none" xmlns="http://www.w3.org/2000/svg">
<path d="M185.412 0H11.5882C5.21471 0 0 4.15227 0 9.22727V193.773C0 198.848 5.21471 203 11.5882 203H185.412C191.785 203 197 198.848 197 193.773V9.22727C197 4.15227 191.785 0 185.412 0ZM173.824 184.545H23.1765V18.4545H173.824V184.545ZM47.8015 145.33C47.8015 140.255 53.0162 136.102 59.3897 136.102H137.61C143.984 136.102 149.199 140.255 149.199 145.33C149.199 150.405 143.984 154.557 137.61 154.557H59.3897C53.0162 154.557 47.8015 150.405 47.8015 145.33ZM49.5397 101.5C49.5397 96.425 54.7544 92.2727 61.1279 92.2727H137.321C143.694 92.2727 148.909 96.425 148.909 101.5C148.909 106.575 143.694 110.727 137.321 110.727H61.1279C54.7544 110.727 49.5397 106.575 49.5397 101.5ZM49.5397 57.6705C49.5397 52.5955 54.7544 48.4432 61.1279 48.4432H137.321C143.694 48.4432 148.909 52.5955 148.909 57.6705C148.909 62.7455 143.694 66.8977 137.321 66.8977H61.1279C54.7544 66.8977 49.5397 62.7455 49.5397 57.6705Z" fill="#1A2A6C"/>
</svg>
