<svg width="192" height="211" viewBox="0 0 192 211" fill="none" xmlns="http://www.w3.org/2000/svg">
<path d="M124.117 160.29V170.34C124.117 178.335 121.158 186.004 115.892 191.657C110.625 197.311 103.482 200.488 96.0341 200.488C88.5861 200.488 81.4431 197.311 76.1766 191.657C70.91 186.004 67.9513 178.335 67.9513 170.34V160.29M124.117 160.29H67.9513M124.117 160.29H157.722C161.308 160.29 163.105 160.29 164.556 159.768C165.921 159.272 167.16 158.444 168.178 157.35C169.196 156.255 169.965 154.923 170.425 153.457C170.921 151.889 170.921 149.96 170.921 146.081C170.921 144.382 170.921 143.538 170.79 142.724C170.559 141.203 170.005 139.758 169.171 138.503C168.722 137.83 168.16 137.227 167.046 136.031L163.395 132.112C162.813 131.486 162.351 130.744 162.036 129.926C161.722 129.109 161.56 128.233 161.56 127.349V89.9452C161.56 80.7073 159.866 71.5599 156.573 63.0253C153.28 54.4906 148.453 46.7358 142.368 40.2036C136.284 33.6715 129.06 28.4899 121.11 24.9547C113.16 21.4196 104.639 19.6 96.0341 19.6C87.429 19.6 78.9082 21.4196 70.9582 24.9547C63.0082 28.4899 55.7846 33.6715 49.6999 40.2036C43.6152 46.7358 38.7886 54.4906 35.4956 63.0253C32.2026 71.5599 30.5077 80.7073 30.5077 89.9452V127.349C30.5083 128.233 30.3465 129.109 30.0317 129.926C29.7169 130.744 29.2552 131.486 28.6729 132.112L25.0222 136.031C23.8989 137.237 23.3466 137.83 22.9066 138.493C22.0644 139.749 21.5038 141.197 21.2685 142.724C21.1468 143.528 21.1468 144.382 21.1468 146.081C21.1468 149.96 21.1468 151.889 21.6335 153.457C22.0953 154.925 22.8671 156.258 23.8885 157.353C24.9099 158.448 26.1533 159.274 27.5216 159.768C28.9725 160.29 30.7604 160.29 34.3457 160.29H67.9513M152.377 9.69141C165.285 20.1367 175.453 33.9921 181.892 49.9087M39.7001 9.69141C26.7889 20.1354 16.6173 33.991 10.1758 49.9087" stroke="black" stroke-width="19.0796" stroke-linecap="round" stroke-linejoin="round"/>
</svg>
