<svg width="241" height="443" viewBox="0 0 241 443" fill="none" xmlns="http://www.w3.org/2000/svg">
<path d="M120.172 0C89.1663 0.000660667 59.3611 11.9848 36.9854 33.4478C14.6098 54.9107 1.39548 84.1913 0.104339 115.17C-1.1868 146.148 9.54519 176.427 30.0572 199.677C50.5693 222.928 79.2739 237.35 110.172 239.931V432.415C110.172 435.067 111.225 437.611 113.1 439.486C114.976 441.361 117.519 442.415 120.172 442.415C122.824 442.415 125.367 441.361 127.243 439.486C129.118 437.611 130.172 435.067 130.172 432.415V240C158.381 237.918 184.907 225.785 204.932 205.807C221.798 188.99 233.302 167.55 237.99 144.198C242.677 120.845 240.338 96.627 231.268 74.6032C222.198 52.5794 206.803 33.7381 187.029 20.4597C167.256 7.18129 143.99 0.0615495 120.172 0ZM84.8005 80.48C70.7195 98.786 66.9005 124.044 74.8305 146.4C75.2697 147.638 75.4607 148.95 75.3928 150.261C75.3249 151.573 74.9993 152.858 74.4346 154.044C73.8699 155.23 73.0772 156.293 72.1018 157.172C71.1263 158.051 69.9873 158.73 68.7495 159.169C67.5118 159.608 66.1997 159.799 64.8882 159.731C63.5767 159.663 62.2913 159.338 61.1056 158.773C59.9199 158.208 58.857 157.416 57.9777 156.44C57.0983 155.465 56.4197 154.326 55.9805 153.088C45.8045 124.406 50.7735 91.912 68.9485 68.288C70.5657 66.1859 72.9517 64.8123 75.5816 64.4694C78.2115 64.1265 80.8699 64.8423 82.972 66.4595C85.0742 68.0767 86.4477 70.4626 86.7906 73.0926C87.1336 75.7225 86.4177 78.3809 84.8005 80.483V80.48Z" fill="#1A2A6C"/>
</svg>
