<svg width="270" height="249" viewBox="0 0 270 249" fill="none" xmlns="http://www.w3.org/2000/svg">
<path d="M213.452 113.94H146.303V51.8653C146.303 49.1214 145.124 46.4899 143.025 44.5497C140.926 42.6095 138.079 41.5195 135.111 41.5195C132.143 41.5195 129.296 42.6095 127.197 44.5497C125.099 46.4899 123.919 49.1214 123.919 51.8653V113.94H56.7697C53.8015 113.94 50.9549 115.03 48.8561 116.97C46.7572 118.91 45.5781 121.542 45.5781 124.285C45.5781 127.029 46.7572 129.661 48.8561 131.601C50.9549 133.541 53.8015 134.631 56.7697 134.631H123.919V196.706C123.919 199.45 125.099 202.081 127.197 204.021C129.296 205.961 132.143 207.051 135.111 207.051C138.079 207.051 140.926 205.961 143.025 204.021C145.124 202.081 146.303 199.45 146.303 196.706V134.631H213.452C216.421 134.631 219.267 133.541 221.366 131.601C223.465 129.661 224.644 127.029 224.644 124.285C224.644 121.542 223.465 118.91 221.366 116.97C219.267 115.03 216.421 113.94 213.452 113.94Z" fill="black"/>
</svg>
