<svg width="147" height="164" viewBox="0 0 147 164" fill="none" xmlns="http://www.w3.org/2000/svg">
<path d="M144.336 148.09L116.626 117.272C125.567 104.567 130.418 88.8782 130.4 72.7269C130.4 58.3429 126.576 44.2819 119.411 32.322C112.247 20.3621 102.064 11.0406 90.1507 5.53604C78.237 0.0315112 65.1275 -1.40872 52.48 1.39746C39.8325 4.20364 28.215 11.1302 19.0966 21.3012C9.97825 31.4723 3.76857 44.431 1.25283 58.5386C-1.26292 72.6462 0.0282498 87.2692 4.96307 100.558C9.89789 113.847 18.2547 125.206 28.9768 133.197C39.6988 141.188 52.3045 145.454 65.1998 145.454C79.6795 145.474 93.7447 140.063 105.135 130.09L132.763 160.999C133.521 161.851 134.422 162.528 135.415 162.989C136.408 163.451 137.474 163.688 138.55 163.688C139.626 163.688 140.691 163.451 141.684 162.989C142.677 162.528 143.578 161.851 144.336 160.999C145.1 160.154 145.706 159.149 146.12 158.041C146.534 156.933 146.747 155.745 146.747 154.545C146.747 153.345 146.534 152.156 146.12 151.048C145.706 149.941 145.1 148.935 144.336 148.09ZM16.3 72.7269C16.3 61.9389 19.1679 51.3931 24.5411 42.4232C29.9143 33.4533 37.5514 26.4621 46.4867 22.3338C55.4219 18.2054 65.2541 17.1252 74.7397 19.2298C84.2254 21.3345 92.9385 26.5294 99.7772 34.1577C106.616 41.7859 111.273 51.5049 113.16 62.0857C115.047 72.6664 114.079 83.6336 110.377 93.6004C106.676 103.567 100.409 112.086 92.3671 118.08C84.3256 124.073 74.8713 127.272 65.1998 127.272C52.2308 127.272 39.7929 121.525 30.6224 111.296C21.4519 101.067 16.3 87.1932 16.3 72.7269Z" fill="#787878"/>
</svg>
