<svg xmlns="http://www.w3.org/2000/svg" width="115" height="116" viewBox="0 0 115 116" fill="none">
<path d="M2.96391 53.3804L25.1593 74.2864L18.9939 103.428C18.3774 107.229 19.6104 111.03 22.6931 112.931C23.9262 114.198 25.7758 114.831 27.6254 114.831C28.8585 114.831 30.0916 114.831 31.3247 114.198C31.3247 114.198 31.9412 114.198 31.9412 113.564L57.2193 98.9934L82.4973 113.564C82.4973 113.564 83.1139 113.564 83.1139 114.198C86.1965 115.465 89.8958 115.465 92.3619 113.564C95.4446 111.664 96.6777 107.863 96.0612 104.061L89.8958 74.9199C92.3619 73.0193 96.0611 69.2183 99.7604 65.4172L111.475 54.6475L112.091 54.0139C114.557 51.4799 115.174 47.6788 113.941 44.5112C112.708 41.3437 110.242 38.8096 106.542 38.1761H105.926L76.9485 35.0085L65.2343 7.76747C65.2343 7.76747 65.2343 7.13396 64.6177 7.13396C64.0012 2.69937 60.9185 0.798828 57.8358 0.798828C54.7531 0.798828 51.6704 2.69937 49.8208 5.86693C49.8208 5.86693 49.8208 6.50045 49.2043 6.50045L37.49 33.7415L8.51276 36.9091H7.89622C4.81353 37.5426 1.73084 40.0766 0.497764 43.2442C-0.118774 47.0453 0.497763 50.8464 2.96391 53.3804Z" fill="#F6C74E"/>
</svg>